<?xml version="1.0" encoding="utf-8"?>
<!-- Generator: Adobe Illustrator 17.1.0, SVG Export Plug-In . SVG Version: 6.00 Build 0)  -->
<!DOCTYPE svg PUBLIC "-//W3C//DTD SVG 1.1//EN" "http://www.w3.org/Graphics/SVG/1.1/DTD/svg11.dtd">
<svg version="1.1" id="Layer_1" xmlns="http://www.w3.org/2000/svg" xmlns:xlink="http://www.w3.org/1999/xlink" x="0px" y="0px"
	 viewBox="0 0 192 424" enable-background="new 0 0 192 424" xml:space="preserve">
<path fill="#029ACF" d="M137.3,93.9L136,79H57.9l-1.2,13.8h0l-1.8,21.9l0,0.3l0,0h0.1c1.1,8.6,21.1,19.5,42,19.5s40.9-10.9,42-19.5
	l0-0.2C139,114.9,137.3,93.9,137.3,93.9z"/>
<g>
	<path fill="#07CF6C" d="M65.1,266.6c-0.7,17,14.1,33.5,30.7,27.7C99.8,277.2,81.9,264.1,65.1,266.6z"/>
	<path fill="#07CF6C" d="M94.9,332.7c0,0-0.2-3.8-0.5-9.5c-0.2-2.8-0.3-6.1-0.4-9.7c-0.1-3.6-0.1-7.4,0.1-11.2
		c0.2-3.9,0.6-7.8,1.6-11.4c0.5-1.8,1.1-3.6,1.9-5.2c0.8-1.6,1.7-3.2,2.7-4.4c0.5-0.7,1.1-1.2,1.6-1.8c0.6-0.5,1.1-1,1.6-1.4
		c1.1-0.9,2.1-1.5,2.9-2c0.4-0.2,0.8-0.4,1.2-0.6c0.3-0.1,0.6-0.3,0.9-0.4c0.5-0.2,0.7-0.3,0.7-0.3l2.2,6.6c0,0-0.2,0.1-0.5,0.2
		c-0.2,0.1-0.4,0.1-0.7,0.2c-0.2,0.1-0.5,0.2-0.8,0.3c-0.6,0.2-1.4,0.6-2.2,1.1c-0.8,0.5-1.7,1.1-2.5,2c-0.8,0.8-1.7,1.9-2.4,3.1
		c-0.8,1.2-1.5,2.6-2.1,4.2c-1.2,3.1-2.1,6.7-2.7,10.3c-0.6,3.7-1,7.4-1.3,10.9c-0.3,3.5-0.5,6.8-0.7,9.7
		C95.2,328.9,94.9,332.7,94.9,332.7z"/>
	<path fill="#DE445D" d="M135.9,300.7c-18.7-16.7-36,3.7-40,3.7c-4,0-21.3-20.3-40-3.7c-18.7,16.7,2,74,24.7,74
		c10.7,0,13.3-2.7,15.3-2.7c2,0,4.7,2.7,15.3,2.7C134,374.7,154.6,317.3,135.9,300.7z"/>
	<g opacity="0.25">
		<path fill="#FFFFFF" d="M100.9,308.3c2.1,0,4.1-1.3,7-3.2c3.6-2.4,8.9-5.9,14.8-6.8c-0.8-0.1-1.6-0.2-2.4-0.2
			c-6.8,0-13.2,4.2-17.3,7c-1.8,1.2-3.2,2.1-4.5,2.7C99.3,308.1,100.1,308.3,100.9,308.3z"/>
		<path fill="#FFFFFF" d="M62.4,345c-6.7-17.7-6.2-34.6,1.2-41.3c3.4-3.1,6.9-4.8,10.6-5.4c-0.9-0.1-1.7-0.2-2.6-0.2
			c-4.6,0-8.8,1.8-13,5.5c-7.5,6.7-8,23.6-1.2,41.3c5.9,15.4,15.2,25.7,23.2,25.7c1.3,0,2.5,0,3.5-0.1
			C76.5,369.4,67.9,359.4,62.4,345z"/>
		<path fill="#FFFFFF" d="M104.5,368.8c-1.2-0.4-2.3-0.8-3.6-0.8c-0.9,0-1.7,0.2-2.5,0.5c0.4,0.1,0.7,0.2,1.1,0.4
			c2,0.7,5,1.8,11.8,1.8c0.5,0,1,0,1.5-0.1C108.4,370.2,106.1,369.4,104.5,368.8z"/>
	</g>
	<path opacity="0.2" fill="#FFFFFF" enable-background="new    " d="M80.9,285.5c-3.8-4-6.3-9.4-6.9-14.9c-1.3-0.2-2.7-0.3-4-0.3
		c0.6,5.7,3.1,11.2,7,15.2c3.7,3.8,8.2,5.9,12.8,5.9c0.7,0,1.3-0.1,2-0.1C87.8,290.8,84,288.8,80.9,285.5z"/>
</g>
<path fill="#314B59" d="M137.3,90.7L136.1,76H58.4l-1.1,13.7h0l-1.8,21.8l0,0.3l0,0h0.1c1.1,8.6,21,19.4,41.8,19.4
	s40.7-10.9,41.8-19.4l0-0.2C139.1,111.6,137.3,90.7,137.3,90.7z"/>
<path fill="#3A5261" d="M97,88.8H57.3l-0.1,0.9l-1.8,21.8l0,0.3l0,0h0.1c1,8,18.3,17.9,37.5,19.3h4.3C97.3,131.1,97,88.8,97,88.8z"
	/>
<path fill="#029ACF" d="M137.6,94.1L136.1,76H58.4l-1.5,18.1c18.8,6.9,40.5,14.8,40.4,14.8C97.3,108.9,118.9,100.9,137.6,94.1z"/>
<path fill="#3B5766" d="M97.2,55c0,0,51.2,18.7,64.3,23.6c0,0,0,2.2,0,2.2c-13.1,4.8-64.2,23.5-64.2,23.5c0.1,0-51.2-18.8-64.3-23.6
	l0-2.2C46,73.8,97.3,55,97.2,55z"/>
<path fill="#425D6B" d="M161.5,78.6c-13.1,4.8-64.2,23.5-64.2,23.5c0.1,0-51.2-18.8-64.3-23.6l0,2.2c13.1,4.8,64.4,23.5,64.3,23.6
	c0,0,51.1-18.7,64.2-23.5C161.5,80.8,161.5,78.6,161.5,78.6L161.5,78.6L161.5,78.6z"/>
<path fill="#2B4250" d="M97.2,76c1.7,0,3,1,3,2.2s-1.3,2.2-3,2.2s-3-1-3-2.2S95.6,76,97.2,76z"/>
<path fill="#EA7A30" d="M96.7,80.4l-1-2.8L62,90.9l2.8,1.6C64.8,92.5,96.7,80.4,96.7,80.4z"/>
<path fill="#EA7A30" d="M59,114.8c0-2,1.2-3.6,3-4.2V90.9l3,1.5v18.2c1.7,0.6,3,2.3,3,4.2c0,1.9-1.1,3.4-2.7,4.1
	c0.5,1.9,1.5,5.7,2.7,7.8c-0.1-0.1-7.4,3-7.4,3s1.7-6.3,1.6-10.7C60.3,118.5,59,116.8,59,114.8z"/>
</svg>
