<?xml version="1.0" encoding="utf-8"?>
<!-- Generator: Adobe Illustrator 17.1.0, SVG Export Plug-In . SVG Version: 6.00 Build 0)  -->
<!DOCTYPE svg PUBLIC "-//W3C//DTD SVG 1.1//EN" "http://www.w3.org/Graphics/SVG/1.1/DTD/svg11.dtd">
<svg version="1.1" id="Layer_1" xmlns="http://www.w3.org/2000/svg" xmlns:xlink="http://www.w3.org/1999/xlink" x="0px" y="0px"
	 viewBox="0 0 31.7 203.3" enable-background="new 0 0 31.7 203.3" xml:space="preserve">
<g>
	<path fill="#575757" d="M7.4,39.9c0-0.8,0.3-2.7,0.9-3.5c0.6-0.7,1.5-1.4,2.7-1.9c1.2-0.5,2.6-0.7,4.3-0.7c1.5,0,2.9,0.2,4,0.7
		c1.1,0.5,1.9,1.1,2.4,2c0.4,0.6,0.5,2.7,0.5,4.3v6.8c0,1,0,1.6,0.1,1.9c0.1,0.5,1,2.9,1.3,3.1h-3.6c-0.4-0.5-0.6-2.4-0.7-3
		c-1.4,1.1-2.8,1.9-3.9,2.3c-1.2,0.4-2.4,0.7-3.5,0.7c-1.7,0-3-0.4-4.1-1.3c-1-0.9-1.6-1.9-1.6-3.1c0-0.7,0.2-1.4,0.6-2.1
		c0.4-0.6,1-1.2,1.7-1.7c0.8-0.5,2-0.9,3.7-1.3c1.7-0.4,4-1,6.9-1.3l0-1.7c0-1.3-0.4-2.2-1.1-2.8c-0.7-0.6-1.8-0.8-3.2-0.8
		c-0.7,0-1.3,0.1-1.8,0.2c-0.5,0.2-0.9,0.4-1.2,0.7c-0.3,0.3-0.5,0.6-0.7,0.9c-0.1,0.1-0.2,0.6-0.4,1.5 M19,44
		c-2.8,0.4-4.5,0.6-5.2,0.7c-1.3,0.3-2.3,0.6-2.8,1c-0.6,0.4-1,0.6-1.2,1c-0.2,0.4-0.4,0.7-0.4,1.2s0.1,0.7,0.4,1.1
		c0.3,0.4,0.7,0.8,1.1,1c0.5,0.2,1,0.4,1.6,0.4c0.8,0,1.7-0.2,2.7-0.5c1-0.4,2.5-0.8,3.8-2.8L19,44z"/>
</g>
<circle fill="#575757" cx="26.3" cy="51" r="1.6"/>
<path fill="#029ACF" d="M13.8,70.9c0,0.1-0.1,0.3-0.2,0.3h-1.7c-0.1,0-0.2-0.1-0.2-0.3v-1.5c0-0.1,0.1-0.3,0.2-0.3h1.7
	c0.1,0,0.2,0.1,0.2,0.3V70.9z"/>
<path fill="#029ACF" d="M16.9,70.9c0,0.1-0.1,0.3-0.2,0.3h-1.7c-0.1,0-0.2-0.1-0.2-0.3v-1.5c0-0.1,0.1-0.3,0.2-0.3h1.7
	c0.1,0,0.2,0.1,0.2,0.3L16.9,70.9L16.9,70.9z"/>
<path fill="#029ACF" d="M20.1,70.9c0,0.1-0.1,0.3-0.2,0.3h-1.7c-0.1,0-0.2-0.1-0.2-0.3v-1.5c0-0.1,0.1-0.3,0.2-0.3h1.7
	c0.1,0,0.2,0.1,0.2,0.3V70.9z"/>
<path fill="#029ACF" d="M23.2,70.9c0,0.1-0.1,0.3-0.2,0.3h-1.7c-0.1,0-0.2-0.1-0.2-0.3v-1.5c0-0.1,0.1-0.3,0.2-0.3H23
	c0.1,0,0.2,0.1,0.2,0.3V70.9L23.2,70.9z"/>
<path fill="#029ACF" d="M13.8,73.8c0,0.1-0.1,0.3-0.2,0.3h-1.7c-0.1,0-0.2-0.1-0.2-0.3v-1.5c0-0.1,0.1-0.3,0.2-0.3h1.7
	c0.1,0,0.2,0.1,0.2,0.3V73.8z"/>
<path fill="#029ACF" d="M10.8,73.8c0,0.1-0.1,0.3-0.2,0.3H9c-0.1,0-0.2-0.1-0.2-0.3v-1.5c0-0.1,0.1-0.3,0.2-0.3h1.7
	c0.1,0,0.2,0.1,0.2,0.3V73.8z"/>
<path fill="#029ACF" d="M16.9,73.8c0,0.1-0.1,0.3-0.2,0.3h-1.7c-0.1,0-0.2-0.1-0.2-0.3v-1.5c0-0.1,0.1-0.3,0.2-0.3h1.7
	c0.1,0,0.2,0.1,0.2,0.3L16.9,73.8L16.9,73.8z"/>
<path fill="#029ACF" d="M20.1,73.8c0,0.1-0.1,0.3-0.2,0.3h-1.7c-0.1,0-0.2-0.1-0.2-0.3v-1.5c0-0.1,0.1-0.3,0.2-0.3h1.7
	c0.1,0,0.2,0.1,0.2,0.3V73.8z"/>
<path fill="#029ACF" d="M23.2,73.8c0,0.1-0.1,0.3-0.2,0.3h-1.7c-0.1,0-0.2-0.1-0.2-0.3v-1.5c0-0.1,0.1-0.3,0.2-0.3H23
	c0.1,0,0.2,0.1,0.2,0.3V73.8L23.2,73.8z"/>
<path fill="#029ACF" d="M13.8,76.7c0,0.1-0.1,0.3-0.2,0.3H12c-0.1,0-0.2-0.1-0.2-0.3v-1.5c0-0.1,0.1-0.3,0.2-0.3h1.7
	c0.1,0,0.2,0.1,0.2,0.3V76.7L13.8,76.7z"/>
<path fill="#029ACF" d="M10.9,76.7c0,0.1-0.1,0.3-0.2,0.3H9c-0.1,0-0.2-0.1-0.2-0.3v-1.5c0-0.1,0.1-0.3,0.2-0.3h1.7
	c0.1,0,0.2,0.1,0.2,0.3V76.7z"/>
<path fill="#029ACF" d="M17,76.7c0,0.1-0.1,0.3-0.2,0.3h-1.7c-0.1,0-0.2-0.1-0.2-0.3v-1.5c0-0.1,0.1-0.3,0.2-0.3h1.7
	c0.1,0,0.2,0.1,0.2,0.3V76.7L17,76.7z"/>
<path fill="#029ACF" d="M20.1,76.7c0,0.1-0.1,0.3-0.2,0.3h-1.7c-0.1,0-0.2-0.1-0.2-0.3v-1.5c0-0.1,0.1-0.3,0.2-0.3h1.7
	c0.1,0,0.2,0.1,0.2,0.3V76.7L20.1,76.7z"/>
<g>
	<path fill="none" stroke="#029ACF" stroke-width="2" stroke-miterlimit="10" d="M24.8,80H7.2c-0.5,0-0.9-0.4-0.9-0.9V61.7
		c0-0.5,0.4-0.9,0.9-0.9h17.6c0.5,0,0.9,0.4,0.9,0.9V79C25.7,79.5,25.3,80,24.8,80z"/>
</g>
<path fill="#029ACF" d="M6.6,60.8v5.3h18.7v-5.3H6.6z M16.9,64.8l-1-0.5l-1,0.5l0.2-1.1L14.4,63l1.1-0.2l0.5-1l0.5,1l1.1,0.2
	l-0.8,0.8L16.9,64.8z"/>
<g>
	<path fill="none" stroke="#17CE7B" stroke-width="2" stroke-miterlimit="10" d="M16.6,110H16c-5.6,0-10.1-4.5-10.1-10.1v-0.2
		c0-5.6,4.5-10.1,10.1-10.1h0.5c5.6,0,10.1,4.5,10.1,10.1v0.2C26.7,105.4,22.2,110,16.6,110z"/>
</g>
<path fill="#17CE7B" d="M16.3,103.7c-0.5,0-1,0.4-1,1c0,0.5,0.4,1,1,1c0.5,0,1-0.4,1-1C17.3,104.2,16.9,103.7,16.3,103.7z
	 M18.5,94.9c-0.9-0.8-2.4-0.9-3.5-0.5c-1.4,0.6-1.9,1.5-2.1,3c-0.2,1.5,1.4,1.5,1.6,0.4c0.2-0.8,0.2-1.3,1-1.7
	c1.4-0.8,2.9,0.5,2.3,2c-0.3,0.8-1.3,1.1-1.8,1.8c-0.5,0.6-0.7,0.9-0.7,1.6c0,1.3,1.9,1.3,1.9,0c0.1-1.5,1.6-1.6,2.2-2.9
	C20.2,97.3,19.5,95.8,18.5,94.9z"/>
<g>
	<path fill="none" stroke="#029ACF" stroke-width="2" stroke-miterlimit="10" d="M16.5,139.1H16c-5.6,0-10.1-4.5-10.1-10.1v-0.2
		c0-5.6,4.5-10.1,10.1-10.1h0.5c5.6,0,10.1,4.5,10.1,10.1v0.2C26.7,134.6,22.1,139.1,16.5,139.1z"/>
</g>
<path fill="#029ACF" d="M21.2,125.3c-0.4-0.3-1-0.2-1.4,0.2l-4.7,5.8l-1.5-1.7c-0.3-0.4-1-0.4-1.4-0.1c-0.2,0.2-0.3,0.4-0.4,0.7
	c0,0.3,0.1,0.5,0.2,0.7l2.3,2.6c0.2,0.2,0.5,0.3,0.7,0.3c0,0,0,0,0,0c0.3,0,0.6-0.1,0.7-0.4l5.4-6.7c0.2-0.2,0.2-0.5,0.2-0.7
	C21.6,125.7,21.5,125.5,21.2,125.3z"/>
<g>
	<path fill="none" stroke="#F16B6A" stroke-width="2" stroke-miterlimit="10" d="M16.2,168.3h-0.5c-5.6,0-10.1-4.5-10.1-10.1v-0.2
		c0-5.6,4.5-10.1,10.1-10.1h0.5c5.6,0,10.1,4.5,10.1,10.1v0.2C26.3,163.7,21.8,168.3,16.2,168.3z"/>
</g>
<path fill="#F16B6A" d="M16.8,161.9h-1c-0.1,0-0.2-0.1-0.2-0.1v-9.1c0-0.1,0.1-0.1,0.2-0.1h1c0.1,0,0.2,0.1,0.2,0.1v9.1
	C16.9,161.8,16.9,161.9,16.8,161.9z"/>
<path fill="#F16B6A" d="M16.8,164.1h-1c-0.1,0-0.2-0.1-0.2-0.1v-1.2c0-0.1,0.1-0.1,0.2-0.1h1c0.1,0,0.2,0.1,0.2,0.1v1.2
	C16.9,164,16.9,164.1,16.8,164.1z"/>
<g>
	<path fill="none" stroke="#FC6F2C" stroke-width="2" stroke-miterlimit="10" d="M16.2,198.9h-0.5c-5.6,0-10.1-4.5-10.1-10.1v-0.2
		c0-5.6,4.5-10.1,10.1-10.1h0.5c5.6,0,10.1,4.5,10.1,10.1v0.2C26.3,194.3,21.8,198.9,16.2,198.9z"/>
</g>
<path fill="#FB6E2C" d="M13.1,25.9c-1.7,0-3.4-0.6-4.7-1.9c-2.6-2.6-2.6-6.8,0-9.4l7.3-7.3c0.9-0.9,2.1-1.4,3.4-1.4s2.5,0.5,3.4,1.4
	c0.9,0.9,1.4,2.1,1.4,3.4s-0.5,2.5-1.4,3.4l-6.9,6.9c-1.1,1.1-3,1.1-4.2,0c-0.6-0.6-0.9-1.3-0.9-2.1s0.3-1.5,0.9-2.1l4.2-4.2
	c0.4-0.4,1.1-0.4,1.5,0c0.4,0.4,0.4,1,0,1.5l-4.2,4.1c-0.2,0.2-0.3,0.4-0.3,0.6c0,0.2,0.1,0.5,0.3,0.6c0.3,0.3,0.9,0.3,1.3,0
	l6.9-6.9c1-1,1-2.8,0-3.8c-1-1-2.8-1-3.8,0L9.9,16c-1.8,1.8-1.8,4.7,0,6.5c1.8,1.8,4.7,1.8,6.5,0l4.7-4.7c0.4-0.4,1.1-0.4,1.5,0
	s0.4,1,0,1.5l-4.8,4.7C16.5,25.2,14.8,25.9,13.1,25.9z"/>
<g id="Your_Icon">
	<path fill="#FB6E2C" d="M19.6,186.8h-2.1l2.5-2.9c0.1-0.1,0.2-0.4,0.1-0.5c-0.1-0.2-0.3-0.3-0.5-0.3H16c-0.2,0-0.4,0.1-0.4,0.3
		l-3,5.8c-0.1,0.2-0.1,0.4,0,0.5c0.1,0.1,0.3,0.3,0.4,0.3h1.5h0h0h0.6l-1.1,3.7c-0.1,0.2,0,0.5,0.3,0.6c0.1,0,0.2,0.1,0.2,0.1
		c0.2,0,0.3-0.1,0.4-0.2l5-6.4c0.1-0.2,0.1-0.4,0.1-0.5C20,186.9,19.8,186.8,19.6,186.8z"/>
</g>
</svg>
