<?xml version="1.0" encoding="utf-8"?>
<!-- Generator: Adobe Illustrator 17.1.0, SVG Export Plug-In . SVG Version: 6.00 Build 0)  -->
<!DOCTYPE svg PUBLIC "-//W3C//DTD SVG 1.1//EN" "http://www.w3.org/Graphics/SVG/1.1/DTD/svg11.dtd">
<svg version="1.1" id="Layer_1" xmlns="http://www.w3.org/2000/svg" xmlns:xlink="http://www.w3.org/1999/xlink" x="0px" y="0px"
	 viewBox="0 0 120 50" enable-background="new 0 0 120 50" xml:space="preserve">
<g id="Layer_2_1_">
	
		<image overflow="visible" opacity="0.86" width="123" height="44" xlink:href="5840F702749C066A.png"  transform="matrix(1 0 0 1 -1 3)">
	</image>
	<g>
		<g>
			<g>
				<path fill="#FFFFFF" d="M112.3,24.1c0,3-2.4,5.5-5.5,5.5c-3,0-5.5-2.4-5.5-5.5c0-3,2.4-5.5,5.5-5.5
					C109.9,18.7,112.3,21.1,112.3,24.1z M112.7,41.7L112.7,41.7c0,0.6,0.5,0.9,1,0.9h3.4c0.8,0,1-0.6,1-0.9c0-6.8,0-27.2,0-27.2
					c0-0.3-0.5-0.6-0.5-0.6h-4.1c-0.6,0-0.6,0.8-0.6,0.8v0.8c0,0.2-0.1,0.5-0.2,0.6l0,0c-1.6-2.8-6.3-2.7-6.3-2.7
					c-10.4,0.5-10.5,10.3-10.5,10.3c0.1,11.3,9.8,11.1,9.8,11.1c4,0.3,6-1.7,6.5-2.3c0.1-0.1,0.1-0.1,0.2-0.1h0.2L112.7,41.7z"/>
				<path fill="#FFFFFF" d="M29.1,12.1v21.7c0,0.6,0.5,1.1,1.1,1.1h4.2c0.6,0,1-0.5,1-1V21.3c0-0.1,0-0.2,0.1-0.3
					c0.5-0.7,2.3-3.4,5-3.4c1.6,0.1,2.7,0.5,3.6,1c0.3,0.2,0.9,0.1,1.1-0.2l2.3-3.8c0.2-0.3,0.1-0.8-0.1-1.1c-0.8-0.7-2.7-1.9-6-2.3
					c0,0-3.6-0.9-5.9,1.8c-0.1,0.1-0.2,0-0.2-0.1l-0.2-1c-0.1-0.3-0.3-0.6-0.8-0.6h-4.4C29.4,11.3,29.1,11.6,29.1,12.1z"/>
				<g>
					<path fill="#FFFFFF" d="M56,33.6c0,0.7-0.6,1.1-1.1,1.1h-3.5c-0.7,0-1.1-0.6-1.1-1.1V7.3c0-0.7,0.6-1.1,1.1-1.1h3.5
						c0.7,0,1.1,0.6,1.1,1.1V33.6z"/>
				</g>
				<g>
					<path fill="#FFFFFF" d="M66.1,33.6c0,0.7-0.6,1.1-1.1,1.1h-3.5c-0.7,0-1.1-0.6-1.1-1.1V15.4c0-0.7,0.6-1.1,1.1-1.1H65
						c0.7,0,1.1,0.6,1.1,1.1V33.6z"/>
				</g>
				<ellipse fill="#FFFFFF" cx="63.2" cy="9" rx="3.5" ry="3.2"/>
				<path fill="#FFFFFF" d="M92.6,19.5v14.4c0,0.6-0.5,1-1,1h-3.5c-0.6,0-1-0.5-1-1V20.3c0-0.3-0.1-0.7-0.2-1
					c-1.4-2.6-3-3.5-6.3-3.5c-3.1,0-4.2,0.9-5.5,3.4c-0.2,0.3-0.3,0.8-0.2,1.1v13.4c0,0.6-0.5,1-1,1h-3.5c-0.6,0-1-0.5-1-1V19.5
					c1.3-9.1,11.6-8.5,11.6-8.5S90.5,10.6,92.6,19.5z"/>
			</g>
			<path fill="#FFFFFF" d="M2.1,26.5V12.3c0-0.6,0.5-1,1-1h3.5c0.6,0,1,0.5,1,1v13.6c0,0.3,0.1,0.7,0.2,1c1.4,2.6,3,3.5,6.3,3.5
				c3.1,0,4.2-0.9,5.5-3.4c0.2-0.3,0.3-0.8,0.2-1.1V12.2c0-0.6,0.5-1,1-1h3.5c0.6,0,1,0.5,1,1v14.4C24.2,35.7,13.8,35,13.8,35
				S4.3,35.4,2.1,26.5z"/>
		</g>
	</g>
</g>
</svg>
