<?xml version="1.0" encoding="utf-8"?>
<!-- Generator: Adobe Illustrator 17.1.0, SVG Export Plug-In . SVG Version: 6.00 Build 0)  -->
<!DOCTYPE svg PUBLIC "-//W3C//DTD SVG 1.1//EN" "http://www.w3.org/Graphics/SVG/1.1/DTD/svg11.dtd">
<svg version="1.1" id="Layer_1" xmlns="http://www.w3.org/2000/svg" xmlns:xlink="http://www.w3.org/1999/xlink" x="0px" y="0px"
	 viewBox="0 0 105.3 33.7" enable-background="new 0 0 105.3 33.7" xml:space="preserve">
<g id="Layer_2_1_">
	<g>
		<path fill="#FFFFFF" d="M98.5,16.1c0,2.6-2.1,4.8-4.8,4.8c-2.6,0-4.8-2.1-4.8-4.8c0-2.6,2.1-4.8,4.8-4.8
			C96.4,11.3,98.5,13.4,98.5,16.1z M98.9,31.5L98.9,31.5c0,0.5,0.4,0.8,0.9,0.8h3c0.7,0,0.9-0.5,0.9-0.8c0-6,0-23.9,0-23.9
			c0-0.3-0.4-0.5-0.4-0.5h-3.6c-0.5,0-0.5,0.7-0.5,0.7v0.7c0,0.2-0.1,0.4-0.2,0.5l0,0c-1.4-2.5-5.5-2.4-5.5-2.4
			c-9.1,0.4-9.2,9-9.2,9c0.1,9.9,8.6,9.7,8.6,9.7c3.5,0.3,5.3-1.5,5.7-2c0.1-0.1,0.1-0.1,0.2-0.1h0.2L98.9,31.5z"/>
		<path fill="#FFFFFF" d="M25.5,5.5v19c0,0.5,0.4,1,1,1h3.7c0.5,0,0.9-0.4,0.9-0.9v-11c0-0.1,0-0.2,0.1-0.3c0.4-0.6,2-3,4.4-3
			c1.4,0.1,2.4,0.4,3.2,0.9c0.3,0.2,0.8,0.1,1-0.2l2-3.3c0.2-0.3,0.1-0.7-0.1-1C41,6.1,39.3,5,36.4,4.7c0,0-3.2-0.8-5.2,1.6
			C31.1,6.4,31,6.3,31,6.2l-0.2-0.9c-0.1-0.3-0.3-0.5-0.7-0.5h-3.9C25.8,4.8,25.5,5.1,25.5,5.5z"/>
		<g>
			<path fill="#FFFFFF" d="M49.1,24.4c0,0.6-0.5,1-1,1H45c-0.6,0-1-0.5-1-1V1.3c0-0.6,0.5-1,1-1h3.1c0.6,0,1,0.5,1,1V24.4z"/>
		</g>
		<g>
			<path fill="#FFFFFF" d="M58,24.4c0,0.6-0.5,1-1,1h-3.1c-0.6,0-1-0.5-1-1v-16c0-0.6,0.5-1,1-1H57c0.6,0,1,0.5,1,1V24.4z"/>
		</g>
		<ellipse fill="#FFFFFF" cx="55.5" cy="2.8" rx="3.1" ry="2.8"/>
		<path fill="#FFFFFF" d="M81.3,12v12.6c0,0.5-0.4,0.9-0.9,0.9h-3.1c-0.5,0-0.9-0.4-0.9-0.9V12.7c0-0.3-0.1-0.6-0.2-0.9
			c-1.2-2.3-2.6-3.1-5.5-3.1c-2.7,0-3.7,0.8-4.8,3c-0.2,0.3-0.3,0.7-0.2,1v11.8c0,0.5-0.4,0.9-0.9,0.9h-3.1c-0.5,0-0.9-0.4-0.9-0.9
			V12C61.9,4,71,4.5,71,4.5S79.4,4.2,81.3,12z"/>
	</g>
	<path fill="#FFFFFF" d="M1.8,18.2V5.7c0-0.5,0.4-0.9,0.9-0.9h3.1c0.5,0,0.9,0.4,0.9,0.9v11.9c0,0.3,0.1,0.6,0.2,0.9
		c1.2,2.3,2.6,3.1,5.5,3.1c2.7,0,3.7-0.8,4.8-3c0.2-0.3,0.3-0.7,0.2-1V5.6c0-0.5,0.4-0.9,0.9-0.9h3.1c0.5,0,0.9,0.4,0.9,0.9v12.6
		c-1.1,8-10.2,7.4-10.2,7.4S3.8,26,1.8,18.2z"/>
</g>
</svg>
