<?xml version="1.0" encoding="utf-8"?>
<!-- Generator: Adobe Illustrator 17.1.0, SVG Export Plug-In . SVG Version: 6.00 Build 0)  -->
<!DOCTYPE svg PUBLIC "-//W3C//DTD SVG 1.1//EN" "http://www.w3.org/Graphics/SVG/1.1/DTD/svg11.dtd">
<svg version="1.1" id="Layer_1" xmlns="http://www.w3.org/2000/svg" xmlns:xlink="http://www.w3.org/1999/xlink" x="0px" y="0px"
	 viewBox="0 0 145 1119" enable-background="new 0 0 145 1119" xml:space="preserve">
<path fill="#FFFFFF" d="M51.2,64.4c0,0.6-0.6,1.7-1.1,1.7h-9.5c-0.6,0-1.1-0.6-1.1-1.7V56c0-0.6,0.6-1.7,1.1-1.7h9.5
	c0.6,0,1.1,0.6,1.1,1.7V64.4z"/>
<path fill="#FFFFFF" d="M68.5,64.4c0,0.6-0.6,1.7-1.1,1.7h-9.5c-0.6,0-1.1-0.6-1.1-1.7V56c0-0.6,0.6-1.7,1.1-1.7h9.5
	c0.6,0,1.1,0.6,1.1,1.7V64.4L68.5,64.4z"/>
<path fill="#FFFFFF" d="M86.5,64.4c0,0.6-0.6,1.7-1.1,1.7h-9.5c-0.6,0-1.1-0.6-1.1-1.7V56c0-0.6,0.6-1.7,1.1-1.7h9.5
	c0.6,0,1.1,0.6,1.1,1.7V64.4z"/>
<path fill="#FFFFFF" d="M103.8,64.4c0,0.6-0.6,1.7-1.1,1.7h-9.5c-0.6,0-1.1-0.6-1.1-1.7V56c0-0.6,0.6-1.7,1.1-1.7h9.5
	c0.6,0,1.1,0.6,1.1,1.7V64.4L103.8,64.4z"/>
<path fill="#FFFFFF" d="M51.2,80.6c0,0.6-0.6,1.7-1.1,1.7h-9.5c-0.6,0-1.1-0.6-1.1-1.7v-8.4c0-0.6,0.6-1.7,1.1-1.7h9.5
	c0.6,0,1.1,0.6,1.1,1.7V80.6z"/>
<path fill="#FFFFFF" d="M34.4,80.6c0,0.6-0.6,1.7-1.1,1.7h-9c-0.6,0-1.1-0.6-1.1-1.7v-8.4c0-0.6,0.6-1.7,1.1-1.7h9.5
	c0.6,0,1.1,0.6,1.1,1.7v8.4H34.4z"/>
<path fill="#FFFFFF" d="M68.5,80.6c0,0.6-0.6,1.7-1.1,1.7h-9.5c-0.6,0-1.1-0.6-1.1-1.7v-8.4c0-0.6,0.6-1.7,1.1-1.7h9.5
	c0.6,0,1.1,0.6,1.1,1.7V80.6L68.5,80.6z"/>
<path fill="none" stroke="#FFFFFF" stroke-miterlimit="10" d="M86.5,80.6c0,0.6-0.6,1.7-1.1,1.7h-9.5c-0.6,0-1.1-0.6-1.1-1.7v-8.4
	c0-0.6,0.6-1.7,1.1-1.7h9.5c0.6,0,1.1,0.6,1.1,1.7V80.6z"/>
<path fill="#FFFFFF" d="M103.8,80.6c0,0.6-0.6,1.7-1.1,1.7h-9.5c-0.6,0-1.1-0.6-1.1-1.7v-8.4c0-0.6,0.6-1.7,1.1-1.7h9.5
	c0.6,0,1.1,0.6,1.1,1.7V80.6L103.8,80.6z"/>
<path fill="#FFFFFF" d="M51.2,96.9c0,0.6-0.6,1.7-1.1,1.7h-9c-0.6,0-1.1-0.6-1.1-1.7v-8.4c0-0.6,0.6-1.7,1.1-1.7h9.5
	c0.6,0,1.1,0.6,1.1,1.7v8.4H51.2z"/>
<path fill="#FFFFFF" d="M35,96.9c0,0.6-0.6,1.7-1.1,1.7h-9.5c-0.6,0-1.1-0.6-1.1-1.7v-8.4c0-0.6,0.6-1.7,1.1-1.7h9.5
	c0.6,0,1.1,0.6,1.1,1.7V96.9z"/>
<path fill="#FFFFFF" d="M69.1,96.9c0,0.6-0.6,1.7-1.1,1.7h-9.5c-0.6,0-1.1-0.6-1.1-1.7v-8.4c0-0.6,0.6-1.7,1.1-1.7H68
	c0.6,0,1.1,0.6,1.1,1.7V96.9L69.1,96.9z"/>
<path fill="#FFFFFF" d="M86.5,96.9c0,0.6-0.6,1.7-1.1,1.7h-9.5c-0.6,0-1.1-0.6-1.1-1.7v-8.4c0-0.6,0.6-1.7,1.1-1.7h9.5
	c0.6,0,1.1,0.6,1.1,1.7V96.9L86.5,96.9z"/>
<g>
	<path fill="none" stroke="#FFFFFF" stroke-width="3.5" stroke-miterlimit="10" d="M112.8,115.3H14.2c-2.8,0-5-2.2-5-5V12.9
		c0-2.8,2.2-5,5-5h98.5c2.8,0,5,2.2,5,5v96.9C117.8,112.5,115.6,115.3,112.8,115.3z"/>
</g>
<path fill="#FFFFFF" d="M10.7,7.9v30h105.8v-30H10.7z M69.5,30.2l-5.6-2.8l-5.6,2.8l1.1-6.2l-3.9-3.9l6.2-1.1l2.8-5.6l2.8,5.6
	l6.2,1.1L69,24.6L69.5,30.2z"/>
<g>
	<path fill="none" stroke="#FFFFFF" stroke-width="4" stroke-miterlimit="10" d="M64.9,297.3h-3.5c-32.4,0-58.5-26.1-58.5-58.5v-1.2
		c0-32.4,26.1-58.5,58.5-58.5h2.9c32.4,0,58.5,26.1,58.5,58.5v1.2C123.4,270.6,97.4,297.3,64.9,297.3z"/>
</g>
<path fill="#FFFFFF" d="M63.2,260.8c-2.9,0-5.8,2.3-5.8,5.8c0,2.9,2.3,5.8,5.8,5.8c2.9,0,5.8-2.3,5.8-5.8
	C69,263.7,66.6,260.8,63.2,260.8z M75.9,209.8c-5.2-4.6-13.9-5.2-20.3-2.9c-8.1,3.5-11,8.7-12.2,17.4c-1.2,8.7,8.1,8.7,9.3,2.3
	c1.2-4.6,1.2-7.5,5.8-9.9c8.1-4.6,16.8,2.9,13.3,11.6c-1.7,4.6-7.5,6.4-10.4,10.4c-2.9,3.5-4.1,5.2-4.1,9.3c0,7.5,11,7.5,11,0
	c0.6-8.7,9.3-9.3,12.7-16.8C85.8,223.7,81.7,215,75.9,209.8z"/>
<rect x="1.2" y="484" fill="#FFFFFF" width="134.7" height="12"/>
<rect x="9.6" y="469.3" fill="#FFFFFF" width="117.6" height="12"/>
<rect x="19.4" y="429.5" fill="#FFFFFF" width="17.4" height="37.8"/>
<rect x="46.6" y="429.5" fill="#FFFFFF" width="17.4" height="37.8"/>
<rect x="73.2" y="429.5" fill="#FFFFFF" width="17.4" height="37.8"/>
<rect x="100.1" y="429.5" fill="#FFFFFF" width="17.4" height="37.8"/>
<rect x="9.7" y="414.2" fill="#FFFFFF" width="117.6" height="12"/>
<path fill="#FFFFFF" d="M68.5,366.2L9.7,418.8h117.6L68.5,366.2z M73.6,405.2h-10c-2.3,0-4.1-3.3-4.1-7.4c0-4.1,1.8-7.4,4.1-7.4h10
	c2.3,0,4.1,3.3,4.1,7.4C77.6,401.9,75.8,405.2,73.6,405.2z"/>
<path fill="#FFFFFF" d="M68.4,576.2C31.2,576.2,1,601.7,1,633.1c0,18.7,10.7,35.2,27.2,45.6l-1.9,26l27.5-16.1
	c4.7,0.9,9.6,1.4,14.6,1.4c37.2,0,67.4-25.5,67.4-56.9C135.8,601.7,105.6,576.2,68.4,576.2z M93,637.7c0,15.5-9.5,23.5-22.7,23.5
	c-12.6,0-23.3-7.7-23.3-23.5v-30.1h9.8v30.1c0,9.5,5.4,14.5,13.6,14.5c8.2,0,12.8-5.5,12.8-14.5v-30.1H93V637.7z"/>
<path fill="#FFFFFF" d="M5.4,894.7c0-46.4,30.9-57.8,40.6-57.8c0,0,3,18.4,21.2,18.4c17.5,0,20.6-18.4,20.6-18.4
	c10.1,0,41.2,11.9,41.2,57.8H5.4z"/>
<path fill="#FFFFFF" d="M67.2,764.8c-17,0-30.9,15.2-30.9,33.9c0,18.7,13.8,33.9,30.9,33.9c17,0,30.9-15.2,30.9-33.9
	C98.1,780,84.3,764.8,67.2,764.8z M78.3,786l-7.6,8.8h6.3c0.6,0,1.2,0.3,1.2,1.5c0,0.3,0,0.9-0.3,1.5l-15.1,19.3
	c-0.3,0.3-0.6,0.6-1.2,0.6c0,0-0.3-0.3-0.6-0.3c-0.9-0.3-1.2-1.2-0.9-1.8l3.3-11.2h-1.8h-4.5c-0.3,0-0.9-0.6-1.2-0.9s-0.3-0.9,0-1.5
	l9.1-17.5c0-0.6,0.6-0.9,1.2-0.9h10.9c0.6,0,1.2,0.3,1.5,0.9C78.9,784.8,78.6,785.7,78.3,786z"/>
<g>
	<path fill="#FFFFFF" d="M16.4,1029c0-4.5,1.7-15.1,5-19.6c3.4-3.9,8.4-7.8,15.1-10.6s14.6-3.9,24.1-3.9c8.4,0,16.2,1.1,22.4,3.9
		c6.2,2.8,10.6,6.2,13.4,11.2c2.2,3.4,2.8,15.1,2.8,24.1v38.1c0,5.6,0,9,0.6,10.6c0.6,2.8,5.6,16.2,7.3,17.4H86.9
		c-2.2-2.8-3.4-13.4-3.9-16.8c-7.8,6.2-15.7,10.6-21.8,12.9c-6.7,2.2-13.4,3.9-19.6,3.9c-9.5,0-16.8-2.2-23-7.3
		c-5.6-5-9-10.6-9-17.4c0-3.9,1.1-7.8,3.4-11.8c2.2-3.4,5.6-6.7,9.5-9.5c4.5-2.8,11.2-5,20.7-7.3s22.4-5.6,38.6-7.3v-9.5
		c0-7.3-2.2-12.3-6.2-15.7c-3.9-3.4-10.1-4.5-17.9-4.5c-3.9,0-7.3,0.6-10.1,1.1c-2.8,1.1-5,2.2-6.7,3.9c-1.7,1.7-2.8,3.4-3.9,5
		c-0.6,0.6-1.1,3.4-2.2,8.4 M81.3,1052c-15.7,2.2-25.2,3.4-29.1,3.9c-7.3,1.7-12.9,3.4-15.7,5.6c-3.4,2.2-5.6,3.4-6.7,5.6
		c-1.1,2.2-2.2,3.9-2.2,6.7c0,2.8,0.6,3.9,2.2,6.2c1.7,2.2,3.9,4.5,6.2,5.6c2.8,1.1,5.6,2.2,9,2.2c4.5,0,9.5-1.1,15.1-2.8
		c5.6-2.2,14-4.5,21.3-15.7V1052z"/>
</g>
<circle fill="#FFFFFF" cx="122.2" cy="1091.2" r="9"/>
</svg>
