<?xml version="1.0" encoding="utf-8"?>
<!-- Generator: Adobe Illustrator 17.1.0, SVG Export Plug-In . SVG Version: 6.00 Build 0)  -->
<!DOCTYPE svg PUBLIC "-//W3C//DTD SVG 1.1//EN" "http://www.w3.org/Graphics/SVG/1.1/DTD/svg11.dtd">
<svg version="1.1" id="Layer_1" xmlns="http://www.w3.org/2000/svg" xmlns:xlink="http://www.w3.org/1999/xlink" x="0px" y="0px"
	 viewBox="0 0 1000 1000" enable-background="new 0 0 1000 1000" xml:space="preserve">
<path opacity="0.92" fill="#FFFFFF" d="M827.5,0H172.5C77.2,0,0,77.2,0,172.5v655.1C0,922.8,77.2,1000,172.5,1000h655.1
	c95.3,0,172.5-77.2,172.5-172.5V172.5C1000,77.2,922.8,0,827.5,0z"/>
<g id="Layer_2">
	<g>
		<path fill="#029ACF" stroke="#00B8EA" stroke-miterlimit="10" d="M584.4,297.9v410.8c0,11.8,9.5,21.3,21.3,21.3h81
			c11.2,0,20.1-8.9,20.1-20.1V472.7c0-2.3,0.6-4.4,1.7-6.2c7.7-13.3,42.5-64.8,95.5-63.8c30.7,1.2,52.6,9.5,68.8,18.9
			c7.3,4.4,16.8,2.3,21.3-5l43.5-70.4c4.4-6.8,2.7-15.7-2.7-21.3c-15.7-13.9-52-39-115.2-45.8c0,0-69.2-16.2-111.7,34.6
			c-1.7,1.7-4.4,1.2-5-1.2l-3.9-20.1c-1.7-6.8-7.3-11.8-14.5-11.8h-83.3C591.7,281.7,584.4,288.8,584.4,297.9z"/>
	</g>
	<path fill="#16D41A" stroke="#16D41A" stroke-width="3" stroke-miterlimit="10" d="M73.7,572.2V300.6c0-10.6,8.3-19.5,19.5-19.5
		h65.9c10.6,0,18.9,8.3,18.9,18.9v257.1c0,6.8,1.7,12.8,4.4,18.9c25.1,50.3,56.4,67.1,118.5,67.1c58.8,0,78.9-16.2,104.6-65.3
		c3.9-7.3,6.2-15.7,5-22.4V300c0-10.6,8.3-18.9,18.9-18.9h66.5c11.2,0,19.5,8.9,19.5,19.5v271.6C492.8,745.4,296.2,733,296.2,733
		S115.6,739.2,73.7,572.2z"/>
</g>
</svg>
