<?xml version="1.0" encoding="utf-8"?>
<!-- Generator: Adobe Illustrator 16.0.0, SVG Export Plug-In . SVG Version: 6.00 Build 0)  -->
<!DOCTYPE svg PUBLIC "-//W3C//DTD SVG 1.1//EN" "http://www.w3.org/Graphics/SVG/1.1/DTD/svg11.dtd">
<svg version="1.1" id="Layer_1" xmlns="http://www.w3.org/2000/svg" xmlns:xlink="http://www.w3.org/1999/xlink" x="0px" y="0px"
	 width="612px" height="792px" viewBox="0 0 612 792" enable-background="new 0 0 612 792" xml:space="preserve">
<g>
	<path fill="#666766" d="M48.204,417.389H24.188l-5.131-19.469h-7.39v-1.42h8.621l1.232,4.867h29.147L48.204,417.389z
		 M25.419,415.969h21.553l2.052-13.182H21.93L25.419,415.969z"/>
	<ellipse fill="#666766" cx="29.935" cy="423.27" rx="2.258" ry="2.23"/>
	<ellipse fill="#666766" cx="43.278" cy="423.27" rx="2.257" ry="2.23"/>
</g>
<path fill="#999999" d="M18.667,15l-7-7.63l1.2-1.37l5.8,6.261l5.8-6.065l1.2,1.37L18.667,15z"/>
<path fill="#666766" d="M11.667,87l12.717-15l2.283,2.571L16.231,87l10.109,12.429L24.058,102L11.667,87z"/>
<path fill="#666766" d="M26.667,194.5l-12.717,15l-2.283-2.571L22.103,194.5l-10.109-12.429l2.283-2.571L26.667,194.5z"/>
<path fill="#666766" d="M28.667,504c-9.293,0-17,7.707-17,17c0,9.294,7.707,17,17,17s17-7.706,17-17
	C45.667,511.707,37.96,504,28.667,504z M28.667,505.36c8.614,0,15.64,7.026,15.64,15.64c0,3.854-1.36,7.254-3.626,9.974
	c-1.587-0.68-5.214-1.812-7.48-2.493c-0.227,0-0.227,0-0.227-0.906c0-0.681,0.227-1.359,0.454-1.813
	c0.227-0.681,0.681-1.587,0.681-2.493c0.453-0.453,0.906-1.134,1.133-2.721c0.226-1.359,0.226-1.812,0-2.266c0,0,0,0,0-0.228
	c0-0.227,0-1.813,0.226-3.173c0.227-0.907,0-2.72-1.133-4.307c-0.679-0.906-2.267-2.041-4.76-2.268h-1.359
	c-2.721,0-4.08,1.361-4.987,2.268c-1.133,1.359-1.36,3.399-1.133,4.08c0.227,1.359,0.227,2.946,0.227,3.173c0,0,0,0,0,0.227
	c-0.227,0.453-0.227,0.907,0,2.267c0.227,1.587,0.68,2.268,1.133,2.72c0,0.907,0.454,1.813,0.68,2.493
	c0.226,0.454,0.226,1.135,0.226,2.041s0,0.906-0.226,0.906c-2.268,0.681-6.12,2.039-7.48,2.721
	c-2.267-2.721-3.627-6.121-3.627-9.974C13.026,512.387,20.054,505.36,28.667,505.36z"/>
<g>
	<path fill="#333333" d="M432.537,416.889h-24.017l-5.131-19.469H396V396h8.62l1.232,4.867H435L432.537,416.889z M409.752,415.469
		h21.553l2.053-13.182h-27.095L409.752,415.469z"/>
	<ellipse fill="#333333" cx="414.268" cy="422.77" rx="2.259" ry="2.23"/>
	<ellipse fill="#333333" cx="427.61" cy="422.77" rx="2.258" ry="2.23"/>
</g>
<path fill="#333333" d="M395.999,87l12.718-15l2.282,2.571L400.563,87l10.109,12.429L408.391,102L395.999,87z"/>
<path fill="#333333" d="M410.999,194.5l-12.718,15l-2.282-2.571l10.436-12.429l-10.109-12.429l2.282-2.571L410.999,194.5z"/>
<path fill="#333333" d="M413.075,504c-9.294,0-17,7.707-17,17c0,9.294,7.706,17,17,17c9.292,0,17-7.706,17-17
	C430.075,511.707,422.367,504,413.075,504z M413.075,505.36c8.614,0,15.64,7.026,15.64,15.64c0,3.854-1.359,7.254-3.627,9.974
	c-1.586-0.68-5.213-1.812-7.479-2.493c-0.228,0-0.228,0-0.228-0.906c0-0.681,0.228-1.359,0.455-1.813
	c0.227-0.681,0.68-1.587,0.68-2.493c0.453-0.453,0.906-1.134,1.133-2.721c0.227-1.359,0.227-1.812,0-2.266c0,0,0,0,0-0.228
	c0-0.227,0-1.813,0.227-3.173c0.227-0.907,0-2.72-1.133-4.307c-0.68-0.906-2.268-2.041-4.761-2.268h-1.36
	c-2.721,0-4.079,1.361-4.986,2.268c-1.133,1.359-1.359,3.399-1.133,4.08c0.227,1.359,0.227,2.946,0.227,3.173c0,0,0,0,0,0.227
	c-0.227,0.453-0.227,0.907,0,2.267c0.227,1.587,0.68,2.268,1.133,2.72c0,0.907,0.455,1.813,0.681,2.493
	c0.226,0.454,0.226,1.135,0.226,2.041s0,0.906-0.226,0.906c-2.267,0.681-6.12,2.039-7.479,2.721
	c-2.268-2.721-3.627-6.121-3.627-9.974C397.436,512.387,404.462,505.36,413.075,505.36z"/>
<path fill="#333333" d="M403.499,14.5l-7-7.63l1.2-1.37l5.8,6.261l5.8-6.065l1.2,1.37L403.499,14.5z"/>
<g>
	<polyline fill="#FFFFFF" points="12.151,305.576 27.534,290.576 42.151,305.576 	"/>
	<polygon fill="#D7D6D6" points="11.667,303 27.167,288 42.667,303 39.849,303 27.167,290.884 14.485,303 	"/>
</g>
<g>
	<polyline fill="#F2F2F2" points="395.999,305.076 411.382,290.076 425.999,305.076 	" transform="matrix(1.0741563,0,0,1.0692126,-30.255707,-20.076906)"/>
	<polygon fill="#D7D6D6" points="396,303 411.5,288 427,303 424.182,303 411.5,290.884 398.818,303 	"/>
</g>
</svg>
