<?xml version="1.0" ?><!DOCTYPE svg  PUBLIC '-//W3C//DTD SVG 1.1//EN'  'http://www.w3.org/Graphics/SVG/1.1/DTD/svg11.dtd'><svg enable-background="new 0 0 56.693 56.693" height="56.693px" id="Layer_1" version="1.1" viewBox="0 0 56.693 56.693" width="56.693px" xml:space="preserve" xmlns="http://www.w3.org/2000/svg" xmlns:xlink="http://www.w3.org/1999/xlink"><g><path d="M23.569,38.28h-0.01v10.191h10.244V38.269c-1.406-0.684-3.176-1.098-5.104-1.098   C26.759,37.171,24.979,37.587,23.569,38.28z" fill="#474A56"/><path d="M32.13,22.942c1.472-0.529,1.674-1.297,1.674-2.049v-2.59c-1.406,0.688-3.174,1.103-5.104,1.103   c-1.947,0-3.728-0.423-5.141-1.118v2.605c0,0.748,0.199,1.514,1.641,2.041c0.068,0.026,0.137,0.055,0.204,0.084   c1.597,0.592,2.616,1.344,3.261,2.185c0.621-0.8,1.585-1.515,3.066-2.089C31.86,23.05,31.993,22.993,32.13,22.942z" fill="#474A56"/><path d="M33.999,27.944c0.102-0.035,0.197-0.08,0.289-0.133c3.143-1.237,4.938-3.744,4.938-6.918V5.911   c0-0.916-0.758-1.658-1.695-1.658H19.833c-0.936,0-1.694,0.742-1.694,1.658v14.982c0,3.188,1.81,5.706,4.971,6.936   c0.064,0.032,0.132,0.059,0.201,0.084c0.624,0.217,0.878,0.355,0.973,0.42c0.028,0.174,0.028,0.541,0.028,0.691   c0,0.231,0,0.534-0.018,0.7c-0.076,0.047-0.225,0.125-0.495,0.234c-3.545,1.133-5.66,3.811-5.66,7.176v14.98   c0,0.916,0.759,1.658,1.694,1.658H37.53c0.938,0,1.695-0.742,1.695-1.658v-14.98c0-3.479-2.247-6.191-6.021-7.277   c-0.088-0.043-0.149-0.078-0.19-0.104c-0.018-0.166-0.018-0.467-0.018-0.698c0-0.15,0-0.518,0.028-0.691   C33.12,28.299,33.374,28.161,33.999,27.944z M29.619,29.687c0.047,1.16,0.348,2.373,2.289,3.232   c0.077,0.035,0.158,0.062,0.24,0.086c2.379,0.654,3.688,2.121,3.688,4.129v1.146v12.178h-14.31V38.28v-1.146   c0-1.953,1.165-3.35,3.367-4.043c0.038-0.01,0.075-0.023,0.112-0.037c2.172-0.85,2.602-1.949,2.678-3.367   c0.011-0.213,0.015-0.434,0.015-0.663c0-2.057-0.466-3.221-3.08-4.17c-0.044-0.021-0.091-0.043-0.138-0.06   c-1.96-0.72-2.954-2.032-2.954-3.901v-2.73V7.565h14.31v10.598v2.73c0,1.879-1.01,3.195-3.004,3.916   c-0.086,0.029-0.17,0.068-0.248,0.113c-2.521,0.942-2.975,2.103-2.975,4.133C29.61,29.262,29.61,29.474,29.619,29.687z" fill="#474A56"/></g></svg>