<?xml version="1.0" encoding="utf-8"?>
<!-- Generator: Adobe Illustrator 17.0.0, SVG Export Plug-In . SVG Version: 6.00 Build 0)  -->
<!DOCTYPE svg PUBLIC "-//W3C//DTD SVG 1.1//EN" "http://www.w3.org/Graphics/SVG/1.1/DTD/svg11.dtd">
<svg version="1.1" id="Layer_1" xmlns="http://www.w3.org/2000/svg" xmlns:xlink="http://www.w3.org/1999/xlink" x="0px" y="0px"
	 width="20px" height="20px" viewBox="0 0 20 20" enable-background="new 0 0 20 20" xml:space="preserve">
<g>
	<path fill="#48E0A4" d="M10,0c1.354,0,2.65,0.264,3.885,0.792c1.243,0.528,2.309,1.236,3.198,2.125
		c0.889,0.889,1.598,1.955,2.125,3.198C19.735,7.351,20,8.646,20,10s-0.264,2.649-0.792,3.886c-0.527,1.243-1.236,2.309-2.125,3.198
		c-0.889,0.889-1.954,1.597-3.198,2.125C12.65,19.736,11.354,20,10,20c-1.354,0-2.649-0.264-3.885-0.792
		c-1.243-0.528-2.309-1.236-3.198-2.125c-0.889-0.889-1.597-1.955-2.125-3.198C0.264,12.649,0,11.354,0,10s0.264-2.649,0.792-3.885
		C1.32,4.872,2.028,3.806,2.917,2.917C3.806,2.028,4.872,1.32,6.115,0.792C7.351,0.264,8.646,0,10,0z M10,1.333
		c-1.173,0-2.295,0.229-3.364,0.687c-1.062,0.458-1.983,1.076-2.76,1.854c-0.778,0.778-1.396,1.698-1.854,2.76
		C1.563,7.705,1.334,8.826,1.334,10c0,1.174,0.229,2.295,0.687,3.365c0.458,1.063,1.076,1.983,1.854,2.761
		c0.778,0.777,1.698,1.396,2.76,1.854c1.069,0.458,2.191,0.687,3.364,0.687c1.173,0,2.296-0.229,3.365-0.687
		c1.062-0.458,1.983-1.077,2.76-1.854c0.777-0.778,1.396-1.698,1.854-2.761c0.458-1.069,0.687-2.191,0.687-3.365
		c0-1.173-0.229-2.295-0.687-3.365c-0.458-1.062-1.077-1.982-1.854-2.76c-0.777-0.778-1.698-1.396-2.76-1.854
		C12.295,1.562,11.173,1.333,10,1.333z M13.802,7.135L10.948,10l2.854,2.865l-0.937,0.938L10,10.948l-2.864,2.854l-0.937-0.938
		L9.052,10L6.198,7.135l0.937-0.937L10,9.052l2.865-2.854L13.802,7.135z"/>
</g>
</svg>
