<?xml version="1.0" encoding="utf-8"?>
<!-- Generator: Adobe Illustrator 17.1.0, SVG Export Plug-In . SVG Version: 6.00 Build 0)  -->
<!DOCTYPE svg PUBLIC "-//W3C//DTD SVG 1.1//EN" "http://www.w3.org/Graphics/SVG/1.1/DTD/svg11.dtd">
<svg version="1.1" id="Layer_1" xmlns="http://www.w3.org/2000/svg" xmlns:xlink="http://www.w3.org/1999/xlink" x="0px" y="0px"
	 viewBox="0 0 48 347" enable-background="new 0 0 48 347" xml:space="preserve">
<g>
	<path fill="#575757" d="M8.7,64.8c0-1.3,0.5-4.7,1.5-6c1-1.3,2.6-2.4,4.7-3.2c2.1-0.8,4.6-1.3,7.4-1.3c2.7,0,5,0.4,6.9,1.2
		c1.9,0.8,3.3,2,4.2,3.5c0.6,1,0.9,4.8,0.9,7.5v11.8c0,1.7,0.1,2.8,0.2,3.3c0.2,0.9,1.7,5,2.3,5.4h-6.3c-0.6-0.8-1.1-4.1-1.3-5.2
		c-2.5,1.9-4.8,3.3-6.8,4c-2,0.8-4.1,1.2-6.1,1.2c-2.9,0-5.2-0.8-7-2.3c-1.8-1.5-2.7-3.3-2.7-5.4c0-1.2,0.3-2.4,1-3.6
		c0.7-1.1,1.7-2.1,3-3s3.5-1.6,6.4-2.3c2.9-0.7,6.9-1.7,12-2.2l0-2.9c0-2.3-0.6-3.9-1.9-4.9c-1.3-1-3.1-1.5-5.5-1.5
		c-1.2,0-2.2,0.1-3.1,0.4c-0.9,0.3-1.6,0.7-2.1,1.1c-0.5,0.5-0.9,1-1.2,1.6c-0.1,0.2-0.4,1.1-0.8,2.6 M29,72c-4.8,0.7-7.8,1-9,1.2
		c-2.3,0.5-3.9,1.1-4.9,1.7c-1,0.6-1.7,1.1-2.1,1.8c-0.4,0.7-0.6,1.2-0.6,2c0,0.8,0.2,1.1,0.7,1.9c0.5,0.7,1.1,1.3,2,1.8
		c0.9,0.4,1.8,0.6,2.7,0.6c1.4,0,2.9-0.3,4.6-0.9c1.7-0.6,4.3-1.4,6.6-4.8L29,72z"/>
</g>
<circle fill="#575757" cx="41.6" cy="84.1" r="2.8"/>
<path fill="#029ACF" d="M19.9,118.5c0,0.2-0.1,0.5-0.3,0.5h-2.9c-0.2,0-0.3-0.2-0.3-0.5V116c0-0.2,0.1-0.5,0.3-0.5h2.9
	c0.2,0,0.3,0.2,0.3,0.5V118.5z"/>
<path fill="#029ACF" d="M25.3,118.5c0,0.2-0.1,0.5-0.3,0.5h-2.9c-0.2,0-0.3-0.2-0.3-0.5V116c0-0.2,0.1-0.5,0.3-0.5H25
	c0.2,0,0.3,0.2,0.3,0.5L25.3,118.5L25.3,118.5z"/>
<path fill="#029ACF" d="M30.9,118.5c0,0.2-0.1,0.5-0.3,0.5h-2.9c-0.2,0-0.3-0.2-0.3-0.5V116c0-0.2,0.1-0.5,0.3-0.5h2.9
	c0.2,0,0.3,0.2,0.3,0.5V118.5z"/>
<path fill="#029ACF" d="M36.1,118.5c0,0.2-0.1,0.5-0.3,0.5h-2.9c-0.2,0-0.3-0.2-0.3-0.5V116c0-0.2,0.1-0.5,0.3-0.5h2.9
	c0.2,0,0.3,0.2,0.3,0.5V118.5L36.1,118.5z"/>
<path fill="#029ACF" d="M19.9,123.6c0,0.2-0.1,0.5-0.3,0.5h-2.9c-0.2,0-0.3-0.2-0.3-0.5V121c0-0.2,0.1-0.5,0.3-0.5h2.9
	c0.2,0,0.3,0.2,0.3,0.5V123.6z"/>
<path fill="#029ACF" d="M14.8,123.6c0,0.2-0.1,0.5-0.3,0.5h-2.9c-0.2,0-0.3-0.2-0.3-0.5V121c0-0.2,0.1-0.5,0.3-0.5h2.9
	c0.2,0,0.3,0.2,0.3,0.5V123.6z"/>
<path fill="#029ACF" d="M25.3,123.6c0,0.2-0.1,0.5-0.3,0.5h-2.9c-0.2,0-0.3-0.2-0.3-0.5V121c0-0.2,0.1-0.5,0.3-0.5H25
	c0.2,0,0.3,0.2,0.3,0.5L25.3,123.6L25.3,123.6z"/>
<path fill="#029ACF" d="M30.9,123.6c0,0.2-0.1,0.5-0.3,0.5h-2.9c-0.2,0-0.3-0.2-0.3-0.5V121c0-0.2,0.1-0.5,0.3-0.5h2.9
	c0.2,0,0.3,0.2,0.3,0.5V123.6z"/>
<path fill="#029ACF" d="M36.1,123.6c0,0.2-0.1,0.5-0.3,0.5h-2.9c-0.2,0-0.3-0.2-0.3-0.5V121c0-0.2,0.1-0.5,0.3-0.5h2.9
	c0.2,0,0.3,0.2,0.3,0.5V123.6L36.1,123.6z"/>
<path fill="#029ACF" d="M19.9,128.5c0,0.2-0.1,0.5-0.3,0.5h-2.9c-0.2,0-0.3-0.2-0.3-0.5V126c0-0.2,0.1-0.5,0.3-0.5h2.9
	c0.2,0,0.3,0.2,0.3,0.5V128.5L19.9,128.5z"/>
<path fill="#029ACF" d="M14.8,128.5c0,0.2-0.1,0.5-0.3,0.5h-2.9c-0.2,0-0.3-0.2-0.3-0.5V126c0-0.2,0.1-0.5,0.3-0.5h2.9
	c0.2,0,0.3,0.2,0.3,0.5V128.5z"/>
<path fill="#029ACF" d="M25.3,128.5c0,0.2-0.1,0.5-0.3,0.5h-2.9c-0.2,0-0.3-0.2-0.3-0.5V126c0-0.2,0.1-0.5,0.3-0.5H25
	c0.2,0,0.3,0.2,0.3,0.5V128.5L25.3,128.5z"/>
<path fill="#029ACF" d="M30.9,128.5c0,0.2-0.1,0.5-0.3,0.5h-2.9c-0.2,0-0.3-0.2-0.3-0.5V126c0-0.2,0.1-0.5,0.3-0.5h2.9
	c0.2,0,0.3,0.2,0.3,0.5V128.5L30.9,128.5z"/>
<g>
	<path fill="none" stroke="#029ACF" stroke-width="2" stroke-miterlimit="10" d="M38.9,134.2H8.4c-0.9,0-1.6-0.7-1.6-1.6v-30
		c0-0.9,0.7-1.6,1.6-1.6h30.6c0.9,0,1.6,0.7,1.6,1.6v30C40.6,133.5,39.8,134.2,38.9,134.2z"/>
</g>
<path fill="#029ACF" d="M7.4,101v9.2h32.4V101H7.4z M25.3,108l-1.7-0.9l-1.7,0.9l0.3-1.9l-1.4-1.3l1.9-0.3l0.8-1.7l0.8,1.7l1.9,0.3
	l-1.4,1.3L25.3,108z"/>
<g>
	<path fill="none" stroke="#17CE7B" stroke-width="2" stroke-miterlimit="10" d="M24.7,186.2h-0.9c-9.7,0-17.5-7.9-17.5-17.5v-0.4
		c0-9.7,7.9-17.5,17.5-17.5h0.9c9.7,0,17.5,7.9,17.5,17.5v0.4C42.2,178.3,34.3,186.2,24.7,186.2z"/>
</g>
<path fill="#17CE7B" d="M24.3,175.4c-0.9,0-1.7,0.7-1.7,1.7c0,0.9,0.7,1.7,1.7,1.7c0.9,0,1.7-0.7,1.7-1.7
	C25.9,176.1,25.2,175.4,24.3,175.4z M28.1,160.1c-1.6-1.4-4.1-1.6-6-0.8c-2.4,1-3.3,2.7-3.6,5.1c-0.3,2.6,2.5,2.6,2.8,0.8
	c0.3-1.4,0.4-2.3,1.7-3c2.4-1.3,5.1,0.9,3.9,3.5c-0.6,1.3-2.2,2-3.1,3c-0.8,1-1.1,1.5-1.1,2.7c0,2.2,3.3,2.2,3.3,0
	c0.1-2.5,2.8-2.8,3.9-5C30.9,164.3,29.8,161.7,28.1,160.1z"/>
<g>
	<path fill="none" stroke="#3DAAD2" stroke-width="2" stroke-miterlimit="10" d="M24.6,236.6h-0.9c-9.7,0-17.5-7.9-17.5-17.5v-0.4
		c0-9.7,7.9-17.5,17.5-17.5h0.9c9.7,0,17.5,7.9,17.5,17.5v0.4C42.2,228.8,34.3,236.6,24.6,236.6z"/>
</g>
<path fill="#3DAAD2" d="M32.8,212.7c-0.7-0.5-1.8-0.4-2.3,0.3l-8.1,10l-2.7-3c-0.6-0.6-1.7-0.7-2.4-0.2c-0.4,0.3-0.6,0.7-0.6,1.1
	c0,0.4,0.1,0.9,0.4,1.2l4,4.5c0.3,0.4,0.8,0.6,1.3,0.6c0,0,0,0,0,0c0.5,0,1-0.2,1.3-0.6l9.3-11.6c0.3-0.3,0.4-0.8,0.3-1.2
	C33.4,213.4,33.1,213,32.8,212.7z"/>
<g>
	<path fill="none" stroke="#F16B6A" stroke-width="2" stroke-miterlimit="10" d="M24,287.1H23c-9.7,0-17.5-7.9-17.5-17.5v-0.4
		c0-9.7,7.9-17.5,17.5-17.5H24c9.7,0,17.5,7.9,17.5,17.5v0.4C41.5,279.3,33.7,287.1,24,287.1z"/>
</g>
<path fill="#F16B6A" d="M25,276h-1.8c-0.2,0-0.3-0.1-0.3-0.3V260c0-0.1,0.1-0.3,0.3-0.3H25c0.2,0,0.3,0.1,0.3,0.3v15.8
	C25.3,275.9,25.2,276,25,276z"/>
<path fill="#F16B6A" d="M25.1,279.9h-1.8c-0.1,0-0.3-0.1-0.3-0.3v-2c0-0.1,0.1-0.3,0.3-0.3h1.8c0.1,0,0.3,0.1,0.3,0.3v2
	C25.3,279.8,25.2,279.9,25.1,279.9z"/>
<g>
	<path fill="none" stroke="#FC6F2C" stroke-width="2" stroke-miterlimit="10" d="M24.7,340.3h-0.9c-9.7,0-17.5-7.9-17.5-17.5v-0.4
		c0-9.7,7.9-17.5,17.5-17.5h0.9c9.7,0,17.5,7.9,17.5,17.5v0.4C42.3,332.5,34.4,340.3,24.7,340.3z"/>
</g>
<path fill="#029ACF" d="M18.7,40.5c-3,0-5.9-1.1-8.1-3.4c-4.5-4.5-4.5-11.8,0-16.3L23.2,8.3c1.6-1.6,3.7-2.4,5.9-2.4
	s4.3,0.9,5.9,2.4c1.6,1.6,2.4,3.7,2.4,5.9s-0.9,4.3-2.4,5.9l-12,11.9c-2,2-5.2,2-7.3,0c-1-1-1.5-2.3-1.5-3.6s0.5-2.7,1.5-3.6
	l7.2-7.2c0.7-0.7,1.9-0.7,2.6,0c0.7,0.7,0.7,1.8,0,2.6l-7.2,7.1c-0.3,0.3-0.5,0.7-0.5,1.1c0,0.4,0.2,0.8,0.5,1.1
	c0.6,0.6,1.6,0.6,2.2,0l11.9-11.9c1.8-1.8,1.8-4.8,0-6.6s-4.8-1.8-6.6,0L13.1,23.4c-3.1,3.1-3.1,8.1,0,11.2s8.1,3.1,11.2,0l8.2-8.2
	c0.7-0.7,1.9-0.7,2.6,0s0.7,1.8,0,2.6l-8.3,8.2C24.6,39.4,21.7,40.5,18.7,40.5z"/>
<g id="ia4tIk_1_">
	
		<image overflow="visible" width="23" height="30" id="ia4tIk" xlink:href="A3AB6231DA35B46E.jpg"  transform="matrix(0.6116 0 0 0.6116 17.2149 313.4393)">
	</image>
</g>
</svg>
