<?xml version="1.0" encoding="utf-8"?>
<!-- Generator: Adobe Illustrator 16.0.0, SVG Export Plug-In . SVG Version: 6.00 Build 0)  -->
<!DOCTYPE svg PUBLIC "-//W3C//DTD SVG 1.1//EN" "http://www.w3.org/Graphics/SVG/1.1/DTD/svg11.dtd">
<svg version="1.1" id="Layer_1" xmlns="http://www.w3.org/2000/svg" xmlns:xlink="http://www.w3.org/1999/xlink" x="0px" y="0px"
	 width="612px" height="792px" viewBox="0 0 612 792" enable-background="new 0 0 612 792" xml:space="preserve">
<g id="Layer_1_1_">
	<path fill="#FFFFFF" stroke="#59595B" stroke-width="7" stroke-miterlimit="10" d="M422.838,248.876
		c0,0.708-0.02,1.533-1.738,1.533c-2.878,0-32.097,0-34.59,0c-1.707,0-1.707-1.01-1.707-1.594c0-4.17,0-45.174,0-46.405
		c0-0.566,0-1.484,1.707-1.484c2.498,0,32.004,0,34.59,0c1.738,0,1.738,0.913,1.738,1.484
		C422.838,204.072,422.838,245.844,422.838,248.876z"/>
	<path fill="#FFFFFF" stroke="#59595B" stroke-width="7" stroke-miterlimit="10" d="M435.381,261.567
		c0,0.708-0.02,1.533-1.737,1.533c-2.88,0-32.098,0-34.591,0c-1.706,0-1.706-1.01-1.706-1.594c0-4.17,0-45.173,0-46.405
		c0-0.565,0-1.483,1.706-1.483c2.497,0,32.004,0,34.591,0c1.737,0,1.737,0.913,1.737,1.483
		C435.381,216.763,435.381,258.536,435.381,261.567z"/>
	<circle fill="#59595B" cx="383.657" cy="209.486" r="24.168"/>
	<path fill="#FFFFFF" d="M385.29,199.759c0.146-0.107,0.475-0.251,0.727,0c0.233,0.233,0.025,0.646-0.11,0.783l-10.877,10.583
		c-1.204,1.124-4.286,4.276-1.429,7.135c2.869,2.869,5.643,0.181,6.815-0.994c0,0,12.081-12.006,12.528-12.538
		c0.446-0.532,1.9-2.059,0.177-3.782c-2.067-2.068-3.792-0.512-4.248-0.056c-1.928,1.928-10.77,10.713-10.881,10.825
		c-0.111,0.112-1.781,1.541-0.57,2.753c1.396,1.396,2.705-0.137,2.919-0.35c0.446-0.447,8.218-8.245,8.16-8.188
		c-0.056,0.056,0.448-0.447,0.895,0c0.447,0.447-0.11,1.006-0.11,1.006l-8.553,8.58c0,0-1.956,2.012-4.053-0.084
		c-2.097-2.096-0.027-3.997,0.224-4.248l10.191-9.999c1.788-1.788,3.856-4.144,7.052-0.949c2.664,2.664,0.404,4.672-1.479,6.559
		l-11.647,11.654c0,0-4.106,5.057-8.459,0.55c-3.957-4.097,1.575-8.687,1.575-8.687L385.29,199.759z"/>
	<path display="none" fill="#FFFFFF" stroke="#59595B" stroke-width="4" stroke-miterlimit="10" d="M84.226,107.925
		c0,1.351-1.095,2.445-2.444,2.445l0,0c-1.351,0-2.445-1.094-2.445-2.445V83.961c0-1.351,1.094-2.445,2.445-2.445l0,0
		c1.35,0,2.444,1.094,2.444,2.445V107.925z"/>
</g>
<g id="Layer_4">
	<circle fill="#FFFFFF" stroke="#59595B" stroke-width="7" stroke-miterlimit="10" cx="189.121" cy="223.404" r="28.681"/>
	
		<circle display="none" fill="#FFFFFF" stroke="#59595B" stroke-width="4" stroke-miterlimit="10" cx="197.574" cy="102.54" r="25.526"/>
	<path display="none" fill="#59595B" d="M209.812,70.004l2.424-4.854c1.272-2.544,4.364-3.576,6.909-2.304l12.353,6.173
		c2.543,1.272,3.575,4.364,2.304,6.909l-2.425,4.854L209.812,70.004z"/>
	<path display="none" fill="#59595B" d="M185.336,70.004l-2.425-4.854c-1.272-2.544-4.365-3.576-6.909-2.304l-12.353,6.172
		c-2.543,1.272-3.575,4.364-2.305,6.909l2.426,4.853L185.336,70.004z"/>
	<circle fill="#59595B" stroke="#59595B" stroke-width="2" stroke-miterlimit="10" cx="189.527" cy="204.878" r="1.702"/>
	<circle fill="#59595B" stroke="#59595B" stroke-width="2" stroke-miterlimit="10" cx="189.527" cy="242.614" r="1.701"/>
	<circle fill="#59595B" stroke="#59595B" stroke-width="2" stroke-miterlimit="10" cx="208.803" cy="223.404" r="1.702"/>
	<circle fill="#59595B" stroke="#59595B" stroke-width="2" stroke-miterlimit="10" cx="169.664" cy="223.404" r="1.702"/>
	<path fill="#59595B" d="M184.145,229.818c0.524,0.669,1.53,0.719,2.244,0.112l5.334-4.538c0.714-0.607,0.868-1.642,0.342-2.311l0,0
		c-0.524-0.669-1.53-0.719-2.244-0.112l-5.335,4.538C183.772,228.114,183.619,229.149,184.145,229.818L184.145,229.818z"/>
	<path fill="#59595B" d="M190.521,224.261c0.465,0.527,1.173,0.662,1.58,0.303l0,0c0.407-0.359,0.358-1.078-0.107-1.605
		l-9.449-10.69c-0.465-0.526-1.174-0.663-1.58-0.303l0,0c-0.406,0.358-0.36,1.078,0.106,1.605L190.521,224.261z"/>
</g>
<g id="Layer_5">
	<path fill="#FFFFFF" stroke="#59595B" stroke-width="7" stroke-miterlimit="10" d="M225.067,422.188
		c0,2.966-2.403,5.367-5.367,5.367h-50.01c-2.963,0-5.366-2.401-5.366-5.367v-42.999c0-2.963,2.403-5.366,5.366-5.366h50.01
		c2.964,0,5.367,2.403,5.367,5.366V422.188z"/>
	<path fill="#59595B" d="M188.285,401.805c0,0.445-0.249,0.808-0.556,0.808h-5.18c-0.307,0-0.556-0.361-0.556-0.808v-4.309
		c0-0.447,0.249-0.807,0.556-0.807h5.18c0.308,0,0.556,0.358,0.556,0.807V401.805z"/>
	<path fill="#59595B" d="M197.896,401.805c0,0.445-0.248,0.808-0.557,0.808h-5.179c-0.307,0-0.557-0.361-0.557-0.808v-4.309
		c0-0.447,0.25-0.807,0.557-0.807h5.179c0.309,0,0.557,0.358,0.557,0.807V401.805L197.896,401.805z"/>
	<path fill="#59595B" d="M207.763,401.805c0,0.445-0.248,0.808-0.555,0.808h-5.181c-0.308,0-0.556-0.361-0.556-0.808v-4.309
		c0-0.447,0.248-0.807,0.556-0.807h5.181c0.307,0,0.555,0.358,0.555,0.807V401.805z"/>
	<path fill="#59595B" d="M217.198,401.805c0,0.445-0.249,0.808-0.557,0.808h-5.18c-0.307,0-0.556-0.361-0.556-0.808v-4.309
		c0-0.447,0.249-0.807,0.556-0.807h5.18c0.308,0,0.557,0.358,0.557,0.807V401.805L217.198,401.805z"/>
	<path fill="#59595B" d="M188.285,410.371c0,0.445-0.249,0.807-0.556,0.807h-5.18c-0.307,0-0.556-0.36-0.556-0.807v-4.309
		c0-0.445,0.249-0.808,0.556-0.808h5.18c0.308,0,0.556,0.361,0.556,0.808V410.371z"/>
	<path fill="#59595B" d="M179.177,410.371c0,0.445-0.249,0.807-0.556,0.807h-5.181c-0.306,0-0.556-0.36-0.556-0.807v-4.309
		c0-0.445,0.25-0.808,0.556-0.808h5.181c0.307,0,0.556,0.361,0.556,0.808V410.371z"/>
	<path fill="#59595B" d="M197.896,410.371c0,0.445-0.248,0.807-0.557,0.807h-5.179c-0.307,0-0.557-0.36-0.557-0.807v-4.309
		c0-0.445,0.25-0.808,0.557-0.808h5.179c0.309,0,0.557,0.361,0.557,0.808V410.371L197.896,410.371z"/>
	<path fill="#59595B" d="M207.763,410.371c0,0.445-0.248,0.807-0.555,0.807h-5.181c-0.308,0-0.556-0.36-0.556-0.807v-4.309
		c0-0.445,0.248-0.808,0.556-0.808h5.181c0.307,0,0.555,0.361,0.555,0.808V410.371z"/>
	<path fill="#59595B" d="M217.198,410.371c0,0.445-0.249,0.807-0.557,0.807h-5.18c-0.307,0-0.556-0.36-0.556-0.807v-4.309
		c0-0.445,0.249-0.808,0.556-0.808h5.18c0.308,0,0.557,0.361,0.557,0.808V410.371L217.198,410.371z"/>
	<path fill="#59595B" d="M188.392,418.756c0,0.445-0.249,0.808-0.556,0.808h-5.18c-0.307,0-0.556-0.361-0.556-0.808v-4.309
		c0-0.445,0.249-0.808,0.556-0.808h5.18c0.308,0,0.556,0.361,0.556,0.808V418.756L188.392,418.756z"/>
	<path fill="#59595B" d="M179.284,418.756c0,0.445-0.249,0.808-0.555,0.808h-5.181c-0.306,0-0.556-0.361-0.556-0.808v-4.309
		c0-0.445,0.25-0.808,0.556-0.808h5.181c0.307,0,0.555,0.361,0.555,0.808V418.756z"/>
	<path fill="#59595B" d="M198.003,418.756c0,0.445-0.249,0.808-0.557,0.808h-5.179c-0.308,0-0.557-0.361-0.557-0.808v-4.309
		c0-0.445,0.249-0.808,0.557-0.808h5.179c0.308,0,0.557,0.361,0.557,0.808V418.756L198.003,418.756z"/>
	<path fill="#59595B" d="M207.763,418.756c0,0.445-0.248,0.808-0.555,0.808h-5.181c-0.308,0-0.556-0.361-0.556-0.808v-4.309
		c0-0.445,0.248-0.808,0.556-0.808h5.181c0.307,0,0.555,0.361,0.555,0.808V418.756L207.763,418.756z"/>
	<rect x="165.487" y="375.971" fill="#59595B" width="57.981" height="14.473"/>
	<circle fill="#59595B" cx="223.017" cy="427.555" r="15.254"/>
	<rect x="221.087" y="418.057" fill="#FFFFFF" width="3.859" height="18.994"/>
	<rect x="213.52" y="425.625" fill="#FFFFFF" width="18.995" height="3.857"/>
	<path fill="#FFFFFF" stroke="#59595B" stroke-width="7" stroke-miterlimit="10" d="M231.888,601.316
		c0,2.963-2.403,5.364-5.367,5.364h-50.01c-2.963,0-5.366-2.401-5.366-5.364v-43c0-2.964,2.403-5.365,5.366-5.365h50.01
		c2.963,0,5.367,2.401,5.367,5.365V601.316z"/>
	<path fill="#59595B" d="M195.105,580.934c0,0.445-0.249,0.808-0.556,0.808h-5.18c-0.307,0-0.556-0.361-0.556-0.808v-4.311
		c0-0.445,0.249-0.807,0.556-0.807h5.18c0.308,0,0.556,0.36,0.556,0.807V580.934z"/>
	<path fill="#59595B" d="M204.716,580.934c0,0.445-0.249,0.808-0.556,0.808h-5.18c-0.307,0-0.556-0.361-0.556-0.808v-4.311
		c0-0.445,0.249-0.807,0.556-0.807h5.18c0.308,0,0.556,0.36,0.556,0.807V580.934L204.716,580.934z"/>
	<path fill="#59595B" d="M214.584,580.934c0,0.445-0.25,0.808-0.556,0.808h-5.181c-0.307,0-0.556-0.361-0.556-0.808v-4.311
		c0-0.445,0.249-0.807,0.556-0.807h5.181c0.306,0,0.556,0.36,0.556,0.807V580.934z"/>
	<path fill="#59595B" d="M224.018,580.934c0,0.445-0.249,0.808-0.556,0.808h-5.18c-0.307,0-0.556-0.361-0.556-0.808v-4.311
		c0-0.445,0.249-0.807,0.556-0.807h5.18c0.308,0,0.556,0.36,0.556,0.807V580.934L224.018,580.934z"/>
	<path fill="#59595B" d="M195.105,589.5c0,0.445-0.249,0.807-0.556,0.807h-5.18c-0.307,0-0.556-0.36-0.556-0.807v-4.311
		c0-0.443,0.249-0.806,0.556-0.806h5.18c0.308,0,0.556,0.361,0.556,0.806V589.5z"/>
	<path fill="#59595B" d="M185.998,589.5c0,0.445-0.249,0.807-0.556,0.807h-5.181c-0.306,0-0.555-0.36-0.555-0.807v-4.311
		c0-0.443,0.249-0.806,0.555-0.806h5.181c0.307,0,0.556,0.361,0.556,0.806V589.5z"/>
	<path fill="#59595B" d="M204.716,589.5c0,0.445-0.249,0.807-0.556,0.807h-5.18c-0.307,0-0.556-0.36-0.556-0.807v-4.311
		c0-0.443,0.249-0.806,0.556-0.806h5.18c0.308,0,0.556,0.361,0.556,0.806V589.5L204.716,589.5z"/>
	<path fill="#59595B" d="M214.584,589.5c0,0.445-0.25,0.807-0.556,0.807h-5.181c-0.307,0-0.556-0.36-0.556-0.807v-4.311
		c0-0.443,0.249-0.806,0.556-0.806h5.181c0.306,0,0.556,0.361,0.556,0.806V589.5z"/>
	<path fill="#59595B" d="M224.018,589.5c0,0.445-0.249,0.807-0.556,0.807h-5.18c-0.307,0-0.556-0.36-0.556-0.807v-4.311
		c0-0.443,0.249-0.806,0.556-0.806h5.18c0.308,0,0.556,0.361,0.556,0.806V589.5L224.018,589.5z"/>
	<path fill="#59595B" d="M195.212,597.885c0,0.445-0.249,0.808-0.556,0.808h-5.18c-0.307,0-0.556-0.361-0.556-0.808v-4.309
		c0-0.447,0.249-0.808,0.556-0.808h5.18c0.308,0,0.556,0.359,0.556,0.808V597.885L195.212,597.885z"/>
	<path fill="#59595B" d="M186.104,597.885c0,0.445-0.249,0.808-0.555,0.808h-5.181c-0.306,0-0.555-0.361-0.555-0.808v-4.309
		c0-0.447,0.249-0.808,0.555-0.808h5.181c0.307,0,0.555,0.359,0.555,0.808V597.885z"/>
	<path fill="#59595B" d="M204.823,597.885c0,0.445-0.249,0.808-0.556,0.808h-5.18c-0.308,0-0.557-0.361-0.557-0.808v-4.309
		c0-0.447,0.249-0.808,0.557-0.808h5.18c0.307,0,0.556,0.359,0.556,0.808V597.885L204.823,597.885z"/>
	<path fill="#59595B" d="M214.584,597.885c0,0.445-0.25,0.808-0.556,0.808h-5.18c-0.307,0-0.555-0.361-0.555-0.808v-4.309
		c0-0.447,0.248-0.808,0.555-0.808h5.18c0.307,0,0.556,0.359,0.556,0.808V597.885L214.584,597.885z"/>
	<rect x="172.307" y="555.1" fill="#59595B" width="57.98" height="14.474"/>
</g>
<path fill="#59595B" d="M420.97,405.383c0,4.072-3.303,7.375-7.374,7.375h-28.424l-10.601,10.762l-3.108-10.762
	c-4.072,0-7.374-3.303-7.374-7.375v-22.951c0-4.072,3.302-7.374,7.374-7.374h42.133c4.071,0,7.374,3.302,7.374,7.374V405.383
	L420.97,405.383z"/>
<path fill="#FFFFFF" stroke="#59595B" stroke-width="7" stroke-miterlimit="10" d="M394.68,420.131c0,4.072,3.304,7.375,7.374,7.375
	h28.424l10.602,10.762l3.108-10.762c4.071,0,7.373-3.303,7.373-7.375v-22.949c0-4.074-3.302-7.375-7.373-7.375h-42.134
	c-4.07,0-7.374,3.301-7.374,7.375V420.131L394.68,420.131z"/>
<circle fill="#59595B" cx="407.913" cy="408.314" r="4.821"/>
<circle fill="#59595B" cx="423.12" cy="408.314" r="4.821"/>
<circle fill="#59595B" cx="437.869" cy="408.314" r="4.821"/>
<path fill="#FFFFFF" d="M378.542,389.067c0.698,4.06,2.379,12.849,3.505,12.849c1.077,0,3.35-9.876,3.946-12.781
	C388.221,378.297,376.696,378.353,378.542,389.067z"/>
<circle fill="#FFFFFF" cx="382.048" cy="405.105" r="2.202"/>
<path fill="#59595B" stroke="#FFFFFF" stroke-width="4" stroke-miterlimit="10" d="M210.576,236.053c0,0,12.09-10.923,23.764-14.468
	c-0.762,3.141-0.912,5.592,0.581,11.593c-1.835,0.653-18.38,9.414-25.251,18.429c-1.833-2.797-8.145-10.943-13.369-15.264
	c3.109-1.399,8.585-7.003,8.585-7.003L210.576,236.053z"/>
</svg>
